<?xml version="1.0" standalone="no"?>
<!DOCTYPE svg PUBLIC "-//W3C//DTD SVG 20010904//EN"
 "http://www.w3.org/TR/2001/REC-SVG-20010904/DTD/svg10.dtd">
<svg version="1.0" xmlns="http://www.w3.org/2000/svg"
 width="1024.000000pt" height="1024.000000pt" viewBox="0 0 1024.000000 1024.000000"
 preserveAspectRatio="xMidYMid meet">

<g transform="translate(0.000000,1024.000000) scale(0.100000,-0.100000)"
fill="none" stroke="none">
<path fill="#00319A" d="M3145 8230 c-503 -44 -896 -354 -1029 -812 -53 -182 -51 -112 -51
-2168 0 -1794 1 -1921 18 -2014 79 -441 370 -782 776 -910 188 -59 71 -57
2292 -53 l2034 3 85 21 c191 49 298 97 444 201 213 153 371 403 432 682 18 81
19 172 19 2065 l0 1980 -23 103 c-93 414 -357 710 -750 842 -204 68 -50 63
-2207 66 -1072 1 -1990 -2 -2040 -6z m2340 -504 c66 -14 147 -34 180 -44 l60
-18 27 -95 c44 -151 84 -370 103 -559 l6 -65 -78 -1 c-108 -1 -444 -81 -603
-144 l-51 -20 -87 31 c-196 69 -542 145 -620 136 l-44 -5 6 62 c23 207 64 433
108 583 l21 73 81 24 c196 59 327 76 571 71 166 -3 220 -8 320 -29z m-1108
-133 c-34 -114 -105 -392 -133 -523 -19 -90 -36 -165 -37 -166 -1 -1 -51 -14
-112 -29 -145 -36 -283 -88 -445 -169 -73 -37 -134 -65 -136 -63 -7 7 58 182
95 255 103 204 297 430 475 551 75 52 271 160 290 161 4 0 6 -8 3 -17z m1619
-51 c281 -141 488 -351 633 -640 38 -76 104 -252 97 -259 -2 -2 -39 17 -83 42
-159 89 -431 188 -574 210 l-47 7 -21 111 c-30 151 -95 415 -126 510 -14 43
-25 80 -25 82 0 7 42 -11 146 -63z m-1286 -678 c85 -20 215 -56 287 -79 l133
-44 132 45 c138 46 325 95 439 114 58 10 81 9 175 -10 371 -74 588 -147 789
-265 129 -76 155 -101 162 -152 6 -45 -4 -55 -28 -27 -7 9 -38 33 -69 54 -216
146 -465 241 -831 316 -125 25 -139 26 -209 15 -106 -18 -315 -73 -450 -119
l-116 -39 -92 33 c-51 19 -177 55 -280 81 -253 63 -291 63 -553 -5 -296 -76
-481 -150 -646 -257 -49 -32 -98 -66 -110 -78 -30 -27 -38 -17 -27 35 8 39 16
48 79 90 199 133 453 229 819 309 155 34 180 33 396 -17z m1317 -135 c40 -6
75 -15 78 -20 8 -12 -75 -210 -147 -354 -64 -127 -165 -291 -174 -282 -3 3 2
38 11 78 15 67 105 572 105 591 0 4 12 5 28 3 15 -2 60 -9 99 -16z m-2222
-176 c21 -197 37 -307 55 -372 12 -40 19 -76 16 -78 -6 -7 -84 94 -106 136
-19 40 -36 131 -45 259 l-6 82 33 15 c18 8 36 14 40 15 4 0 9 -26 13 -57z
m2680 43 c34 -14 35 -17 35 -68 0 -182 -39 -315 -114 -387 -40 -38 -43 -34
-21 28 18 51 42 212 51 344 4 53 9 97 11 97 2 0 19 -7 38 -14z m-2907 -303 c7
-97 10 -179 7 -182 -3 -3 -29 -15 -58 -27 l-52 -22 -3 66 c-2 37 -1 118 3 180
l7 113 36 24 c20 14 39 25 42 25 4 0 12 -79 18 -177z m3174 130 c11 -13 34
-351 25 -360 -3 -3 -33 8 -67 23 l-61 27 5 46 c3 25 8 82 11 126 3 44 8 104
11 133 l5 52 31 -17 c16 -10 34 -24 40 -30z m-3329 -267 l-8 -120 -55 -32
c-30 -18 -57 -31 -58 -29 -5 4 16 276 25 323 4 24 18 43 52 68 l46 36 3 -64
c1 -34 -1 -117 -5 -182z m3484 172 c11 -13 33 -217 33 -308 l0 -52 -52 31
c-63 36 -62 34 -71 254 l-6 148 42 -30 c24 -16 48 -35 54 -43z m-1701 -125
c63 -21 146 -104 237 -235 106 -153 183 -198 336 -198 127 0 320 56 477 139
43 22 79 39 80 38 0 -1 -5 -29 -12 -62 -24 -111 -23 -112 46 -65 32 23 105 84
162 134 l102 92 126 -49 c69 -27 127 -51 129 -53 3 -2 -6 -64 -18 -137 -62
-356 -216 -636 -457 -828 -61 -48 -190 -129 -207 -129 -5 0 5 16 22 35 55 63
210 305 196 305 -4 0 -57 -31 -118 -68 -62 -38 -122 -74 -134 -81 l-23 -12 0
89 0 89 59 18 c50 15 60 22 67 48 9 28 15 32 159 74 83 24 153 48 157 51 8 8
32 131 43 220 7 52 6 53 -17 48 -74 -17 -392 -63 -443 -65 -33 0 -73 -4 -89
-7 -27 -6 -28 -4 -23 17 4 13 7 45 7 71 l0 46 85 52 c119 73 125 89 14 36
-157 -76 -253 -100 -394 -101 -109 0 -125 2 -176 26 -79 37 -125 83 -210 205
-108 157 -170 204 -269 204 -95 0 -139 -36 -272 -220 -133 -183 -214 -227
-407 -217 -86 4 -126 11 -212 40 -58 19 -134 49 -168 67 -35 17 -65 29 -67 27
-3 -2 38 -32 91 -65 90 -58 95 -63 95 -95 0 -19 3 -49 6 -67 6 -29 5 -32 -13
-26 -11 4 -38 8 -59 10 -21 2 -43 5 -49 7 -5 1 -17 -1 -26 -5 -9 -4 -84 4
-165 18 -237 39 -264 41 -264 22 0 -45 34 -232 44 -243 10 -10 191 -70 276
-91 27 -6 37 -15 43 -38 8 -26 18 -33 80 -54 l71 -25 18 -90 c9 -49 20 -101
23 -114 l6 -23 -38 23 c-21 13 -102 65 -180 116 -79 51 -143 90 -143 87 0 -23
148 -254 193 -301 41 -43 27 -41 -55 7 -297 177 -503 495 -569 878 -30 180
-39 161 104 221 l124 52 59 -57 c90 -86 256 -214 277 -214 3 0 -3 28 -13 63
-9 34 -20 75 -24 90 l-7 29 30 -22 c101 -71 330 -153 475 -169 189 -21 279 26
416 219 88 123 140 176 203 206 61 28 115 30 183 7z m-12 -117 c54 -23 98 -69
159 -168 37 -59 100 -138 170 -212 l112 -119 96 27 c53 15 138 43 189 61 l92
33 -7 -71 c-3 -40 -10 -75 -13 -78 -4 -4 -59 -24 -123 -45 l-117 -38 -6 -80
c-4 -45 -11 -116 -17 -160 -6 -43 -8 -80 -5 -83 4 -4 39 2 136 23 21 5 17 -1
-25 -40 -27 -26 -69 -56 -92 -67 -48 -23 -65 -46 -83 -114 -15 -60 -35 -95
-54 -95 -10 0 -15 22 -18 83 -3 67 -10 92 -33 136 -35 64 -118 142 -179 167
l-45 19 -6 80 c-4 44 -5 104 -3 133 l3 54 40 -29 c22 -16 53 -38 69 -48 29
-19 29 -19 18 2 -20 37 -112 112 -175 143 -121 59 -228 50 -349 -29 -66 -43
-163 -141 -140 -141 5 0 16 8 23 17 16 19 99 73 112 73 6 0 8 -75 5 -192 -5
-187 -6 -192 -28 -208 -59 -39 -128 -117 -140 -157 -17 -56 -6 -121 31 -176
30 -45 50 -117 33 -117 -20 0 -324 128 -386 163 -36 20 -77 50 -91 66 -30 36
-47 123 -47 235 0 65 2 77 15 72 33 -12 207 -57 210 -54 3 3 -6 123 -21 273
l-5 51 -117 38 c-64 21 -120 41 -123 45 -4 3 -9 37 -13 75 -8 81 -24 80 164
13 69 -25 144 -48 166 -51 l41 -7 109 115 c60 64 132 153 161 198 l53 83 1
-185 2 -185 9 200 c8 183 10 201 30 222 52 56 144 77 212 49z m4 -633 l3 -133
-28 11 c-16 6 -49 7 -76 4 l-48 -7 4 128 c3 71 6 130 6 132 1 2 31 2 69 0 l67
-3 3 -132z m-1135 98 c24 -9 25 -12 29 -148 3 -76 4 -139 3 -141 -1 -1 -18 4
-38 13 -40 17 -41 19 -52 193 -6 88 -6 92 14 92 11 0 31 -4 44 -9z m2169 -123
c-2 -73 -5 -134 -6 -135 -1 -1 -19 -9 -39 -18 l-37 -15 0 144 c0 142 0 145 23
149 66 13 62 20 59 -125z m-2021 92 l36 -10 6 -107 c4 -58 7 -132 7 -164 l0
-58 -37 13 -38 13 -10 161 c-5 89 -8 162 -5 162 3 0 21 -5 41 -10z m1854 -142
c-4 -84 -8 -154 -9 -155 -1 -1 -21 -6 -44 -11 l-43 -10 6 111 c10 189 11 195
48 206 18 5 36 10 40 10 5 1 6 -68 2 -151z m-829 -122 c13 -15 24 -38 24 -51
0 -24 0 -24 -41 -10 -51 18 -132 19 -181 1 -38 -14 -38 -14 -38 13 0 59 45 82
149 78 55 -3 67 -7 87 -31z m166 -65 c86 -54 137 -148 138 -249 0 -39 -6 -75
-16 -94 -20 -39 -29 -26 -38 56 -9 83 -39 143 -97 198 -36 34 -52 57 -56 82
-7 45 6 47 69 7z m-178 -35 c19 -8 37 -19 40 -25 8 -13 23 -211 16 -211 -3 0
-27 11 -54 25 -62 31 -142 33 -205 5 -24 -11 -45 -20 -46 -20 -4 0 5 159 11
186 9 46 162 72 238 40z m806 -31 c26 -25 63 -86 56 -93 -2 -1 -26 13 -55 32
-28 19 -76 40 -106 47 -54 12 -55 13 -38 32 27 29 104 19 143 -18z m-52 -61
c78 -39 141 -139 130 -207 -3 -19 -7 -16 -25 19 -46 87 -145 144 -250 144 -24
0 -43 2 -43 4 0 33 51 65 106 66 16 0 53 -12 82 -26z m-1094 -109 c0 -78 -15
-135 -35 -135 -4 0 -13 16 -19 35 -9 28 -8 45 4 87 12 43 40 98 49 98 1 0 2
-38 1 -85z m1072 12 c70 -36 113 -100 121 -183 7 -64 -6 -71 -32 -15 -22 50
-79 105 -130 127 -24 10 -67 17 -107 17 -38 0 -68 3 -68 6 0 15 34 53 54 62
29 13 127 4 162 -14z m-735 -58 c49 -25 80 -70 87 -127 l5 -46 -29 23 c-47 37
-92 51 -163 51 -67 0 -136 -23 -173 -57 -17 -15 -18 -14 -18 21 0 128 160 202
291 135z m694 -48 c22 -10 54 -34 72 -54 54 -61 64 -123 33 -202 l-11 -30 -19
54 c-36 106 -104 163 -203 169 -63 4 -63 4 -59 32 2 16 13 32 25 38 35 17 118
13 162 -7z m-670 -115 c49 -29 69 -60 81 -121 7 -39 6 -39 -12 -24 -37 33
-109 61 -163 66 -71 7 -126 -8 -189 -51 l-50 -33 5 41 c15 131 197 198 328
122z m345 -8 c19 -32 27 -88 14 -101 -3 -3 -21 14 -40 39 -34 44 -34 45 -17
69 10 13 19 25 21 25 1 0 11 -15 22 -32z m248 16 c107 -44 160 -169 116 -272
l-16 -37 -18 62 c-25 91 -61 140 -123 169 -29 13 -62 24 -75 24 -20 0 -22 4
-16 23 3 12 7 22 8 23 32 27 74 29 124 8z m-319 -108 c31 -33 40 -105 17 -137
-13 -19 -16 -20 -16 -6 0 10 -11 45 -24 78 -34 82 -22 113 23 65z m285 -16
c63 -41 90 -98 84 -184 -2 -38 -11 -72 -23 -91 l-20 -29 -3 29 c-11 109 -64
195 -142 230 -44 20 -48 29 -23 57 24 27 72 22 127 -12z m-593 -11 c75 -26
120 -76 135 -153 l7 -39 -34 26 c-59 45 -119 67 -184 67 -80 0 -126 -14 -180
-55 l-45 -35 0 39 c0 54 35 101 99 134 60 30 140 36 202 16z m240 -54 c10 -22
19 -55 19 -73 0 -36 -24 -92 -40 -92 -6 0 -13 -1 -17 -2 -4 -2 -6 24 -4 58 1
38 -4 76 -14 102 -14 34 -15 45 -5 57 17 20 37 4 61 -50z m276 -41 c60 -45 93
-141 73 -211 -5 -21 -24 -54 -40 -73 l-30 -35 6 41 c10 66 -20 150 -69 200
-23 22 -48 43 -56 46 -12 3 -11 10 5 37 16 28 23 32 48 27 16 -4 44 -18 63
-32z m-526 -50 c100 -28 159 -96 159 -183 l0 -25 -32 32 c-102 98 -271 101
-395 6 -29 -22 -33 -23 -33 -7 0 75 57 145 142 174 66 23 87 23 159 3z m433
-45 c41 -32 69 -96 69 -156 0 -57 -16 -90 -60 -121 l-28 -20 3 71 c4 67 1 77
-32 140 -29 54 -34 72 -26 87 14 26 41 25 74 -1z m-80 -106 c50 -77 42 -167
-18 -204 -17 -10 -34 -19 -38 -19 -3 0 0 21 8 46 10 35 11 56 3 88 -20 77 -21
96 -9 111 19 22 27 19 54 -22z m-294 -19 c67 -37 101 -81 108 -141 l5 -47 -33
27 c-18 16 -56 40 -84 55 -95 50 -270 29 -332 -39 -9 -10 -21 -19 -26 -19 -15
0 -8 55 11 86 65 107 230 144 351 78z m-735 -352 c61 -21 95 -66 95 -124 0
-32 -7 -47 -35 -75 -39 -39 -41 -43 -21 -43 8 0 26 -14 40 -31 21 -25 26 -41
26 -86 0 -49 -4 -59 -33 -88 -18 -18 -51 -38 -72 -44 -24 -6 -136 -11 -277
-11 l-238 0 0 260 0 260 233 0 c192 -1 241 -4 282 -18z m479 -129 c47 -82 89
-154 93 -162 6 -9 37 36 102 148 l94 162 101 -3 101 -3 0 -255 0 -255 -78 -3
-78 -3 3 171 c2 129 0 167 -8 155 -7 -9 -52 -85 -100 -170 l-89 -155 -36 0
c-42 0 -44 2 -165 215 l-69 120 -3 -167 -2 -168 -70 0 -70 0 -1 38 c-3 284 -4
474 0 478 2 2 46 4 97 4 l92 0 86 -147z m1206 87 l0 -60 -214 0 c-118 0 -221
-3 -230 -6 -9 -3 -16 -16 -16 -29 0 -35 45 -45 209 -45 132 0 151 -2 191 -22
117 -59 122 -207 10 -272 -33 -20 -54 -21 -302 -24 l-268 -3 0 60 0 61 229 0
c126 0 236 3 245 6 19 7 21 49 4 61 -7 4 -89 10 -183 13 -143 4 -176 8 -210
25 -96 48 -116 177 -37 248 44 40 87 46 335 47 l237 0 0 -60z m830 -535 c0
-13 -221 -15 -1925 -15 -1704 0 -1925 2 -1925 15 0 13 221 15 1925 15 1704 0
1925 -2 1925 -15z m-3066 -97 c24 -39 -44 -79 -74 -43 -21 25 3 67 37 63 14
-2 31 -11 37 -20z m1670 0 c14 -23 -3 -52 -33 -56 -42 -6 -67 38 -39 66 17 17
58 11 72 -10z m-1214 -54 l0 -65 22 15 c31 22 100 20 129 -3 22 -18 24 -28 27
-130 l4 -111 -35 0 -35 0 -3 85 c-4 95 -19 122 -61 112 -34 -9 -48 -46 -48
-126 l0 -68 -35 0 -35 0 0 179 0 178 35 0 35 0 0 -66z m1532 -99 c0 -91 1
-171 2 -177 2 -20 -63 -23 -70 -4 -5 14 -8 14 -27 1 -29 -20 -82 -19 -118 2
-68 40 -80 162 -20 215 25 22 41 28 77 28 25 0 54 -5 65 -10 18 -10 19 -7 19
50 l0 60 35 0 35 0 2 -165z m-2262 15 l0 -140 80 0 80 0 0 -32 0 -33 -120 -1
-120 -2 0 174 0 174 40 0 40 0 0 -140z m1586 107 c29 -34 31 -76 5 -108 -19
-23 -19 -24 5 -52 33 -39 31 -81 -5 -118 -22 -21 -40 -29 -68 -30 -21 -1 -71
-2 -110 -3 l-73 -1 0 173 0 174 111 -4 c107 -3 112 -4 135 -31z m-516 -22 c0
-32 2 -35 30 -35 27 0 30 -3 30 -30 0 -27 -3 -30 -30 -30 l-30 0 0 -65 c0 -68
1 -69 48 -65 21 1 23 -2 20 -32 -3 -32 -5 -33 -49 -36 -34 -2 -52 2 -70 17
-21 17 -24 29 -27 100 -4 72 -6 81 -23 81 -14 0 -19 7 -19 30 0 23 4 30 20 30
16 0 20 7 20 35 0 34 1 35 40 35 39 0 40 -1 40 -35z m-800 -163 l0 -127 -35
-1 -35 -1 0 129 0 128 35 0 35 0 0 -128z m242 111 c17 -15 18 -15 18 0 0 13 9
17 35 17 l35 0 0 -136 c0 -110 -3 -141 -17 -165 -24 -41 -88 -64 -153 -55 -74
10 -80 14 -80 53 0 30 3 34 18 28 43 -18 86 -26 107 -21 31 8 55 33 55 56 0
17 -2 18 -27 4 -58 -30 -122 -12 -160 45 -39 57 -24 138 31 172 39 24 113 25
138 2z m1224 2 c-5 -14 -4 -14 16 0 13 8 35 15 50 15 25 0 28 -3 28 -35 0 -33
-2 -35 -34 -35 -18 0 -38 -6 -44 -13 -6 -7 -12 -49 -14 -92 l-3 -80 -33 0 -33
0 -2 128 -2 127 38 0 c31 0 38 -3 33 -15z m204 -115 l0 -130 -35 0 -35 0 0
130 0 130 35 0 35 0 0 -130z m558 114 c20 -14 22 -14 22 0 0 12 10 16 35 16
l35 0 0 -125 c0 -176 -19 -214 -115 -230 -41 -6 -121 6 -135 22 -5 4 -6 20 -3
34 l5 26 52 -15 c67 -18 109 -3 114 42 3 28 3 28 -19 12 -52 -36 -140 -9 -165
49 -28 68 -9 141 44 169 36 20 102 20 130 0z m351 0 c28 -20 51 -72 51 -114
l0 -31 -95 3 c-52 2 -95 0 -95 -4 0 -4 11 -15 25 -24 25 -16 86 -16 128 1 14
6 17 2 17 -24 0 -37 -26 -51 -96 -51 -101 0 -159 56 -151 144 4 42 10 55 41
83 32 29 42 33 94 33 37 0 66 -6 81 -16z"/>
<path fill="#FFFFFF" d="M5287 5813 c3 -104 7 -190 9 -192 2 -2 4 79 4 182 0 102 -4 188 -9
191 -5 4 -7 -71 -4 -181z"/>
<path fill="#FFFFFF" d="M4170 3810 l0 -40 126 0 c69 0 134 5 145 10 23 13 25 55 3 64 -9 3
-74 6 -145 6 l-129 0 0 -40z"/>
<path fill="#FFFFFF" d="M4170 3610 l0 -41 146 3 c127 3 148 5 158 21 8 12 8 22 0 35 -10 15
-31 17 -158 20 l-146 3 0 -41z"/>
<path fill="#FFFFFF" d="M5780 3103 c-36 -46 -11 -103 45 -103 40 0 65 26 65 68 0 60 -72 83
-110 35z"/>
<path fill="#FFFFFF" d="M5117 3213 c-4 -3 -7 -21 -7 -40 0 -32 1 -33 44 -33 60 0 76 8 76 36
0 17 -8 27 -26 34 -29 11 -78 13 -87 3z"/>
<path fill="#FFFFFF" d="M5110 3040 l0 -40 53 0 c55 0 77 12 77 42 0 24 -30 38 -84 38 l-46 0
0 -40z"/>
<path fill="#FFFFFF" d="M4122 3114 c-34 -23 -28 -84 10 -102 36 -17 73 -6 87 24 16 35 14 51
-9 74 -24 24 -57 26 -88 4z"/>
<path fill="#FFFFFF" d="M6112 3114 c-34 -23 -27 -83 11 -104 24 -13 30 -13 55 0 37 21 44 81
10 104 -12 9 -29 16 -38 16 -9 0 -26 -7 -38 -16z"/>
<path fill="#FFFFFF" d="M6420 3115 c-17 -20 -15 -21 47 -28 57 -6 72 2 47 27 -20 20 -78 21
-94 1z"/>
</g>
</svg>
